# xmcd
#
# Track frame offsets:
#	150
#	18882
#	45262
#	66942
#	95305
#	115120
#	140165
#	167382
#	188625
#
# Disc length: 2550 seconds
#
# Revision: 0
# Processed by: cddbd v1.5.1PL0 Copyright (c) Steve Scherf et al.
# Submitted via: dBpowerAMP V4.0
#
DISCID=6909f409
DTITLE=Larry Carlton - Kid Gloves
DYEAR=1900
DGENRE=Blues
TTITLE0=Kid Gloves
TTITLE1=The Preacher
TTITLE2=Michele's Whistle
TTITLE3=Oui Oui si
TTITLE4=Heart To Heart
TTITLE5=Just My Immagination
TTITLE6=Where Be Mosada
TTITLE7=Farm Jazz
TTITLE8=Terry T.
EXTD=
EXTT0=
EXTT1=
EXTT2=
EXTT3=
EXTT4=
EXTT5=
EXTT6=
EXTT7=
EXTT8=
PLAYORDER=
